<?xml version="1.0" encoding="UTF-8"?>
<svg id="Layer_2" data-name="Layer 2" xmlns="http://www.w3.org/2000/svg" viewBox="0 0 50 50">
  <defs>
    <style>
      .cls-1 {
        fill: #fff;
      }

      .cls-1, .cls-2 {
        stroke-width: 0px;
      }

      .cls-2 {
        fill: #1d70fa;
      }
    </style>
  </defs>
  <g id="Layer_1-2" data-name="Layer 1">
    <g>
      <rect class="cls-2" width="50" height="50" rx="15" ry="15"/>
      <path class="cls-1" d="m29.68,16.47h7.83v1.95h-7.83v-1.95Zm10.95,10.95c0-4.07-3.15-7.37-7.03-7.37s-7.03,3.3-7.03,7.37,2.92,7.36,7.03,7.36c3.12,0,5.8-1.38,6.7-4.68h-3.3c-.62,1.15-1.82,1.87-3.12,1.87-1.84,0-3.47-1.32-3.37-3.54h10.07c.05-.32.05-.66.05-1.01Zm-10.11-1.45c.24-1.83,1.54-3,3.1-3s2.84,1.17,3.1,3h-6.19Zm-5.16,1.76c-.26-2.82-3.45-3.78-3.45-3.78,1.21-.57,2.66-1.73,2.64-4.29-.02-3.69-3.87-4.44-5.11-4.44h-10.06v19.21h9.14c1.27,0,2.62-.17,3.69-.7,2.89-1.42,3.39-3.17,3.14-6Zm-11.75-9.19h4.32s2.56-.06,2.56,2.2-2.56,2.2-2.56,2.2h-4.32v-4.4Zm4.58,12.63h-4.58v-5.25h4.58s3.05-.07,3.05,2.62-3.05,2.63-3.05,2.63Z"/>
    </g>
  </g>
</svg>