<?xml version="1.0" encoding="UTF-8"?>
<svg id="Layer_2" data-name="Layer 2" xmlns="http://www.w3.org/2000/svg" viewBox="0 0 40 40">
  <defs>
    <style>
      .cls-1 {
        fill: #fff;
      }

      .cls-1, .cls-2 {
        stroke-width: 0px;
      }

      .cls-2 {
        fill: #837bb2;
      }
    </style>
  </defs>
  <g id="Layer_1-2" data-name="Layer 1">
    <g>
      <rect class="cls-2" width="40" height="40" rx="12" ry="12"/>
      <path class="cls-1" d="m30.37,25.28l-3.04-3.04c-1.09-1.09-2.93-.65-3.36.76-.33.98-1.41,1.52-2.39,1.3-2.17-.54-5.1-3.36-5.64-5.64-.33-.98.33-2.06,1.3-2.39,1.41-.43,1.84-2.28.76-3.36l-3.04-3.04c-.87-.76-2.17-.76-2.93,0l-2.06,2.06c-2.06,2.17.22,7.92,5.32,13.02,5.1,5.1,10.85,7.49,13.02,5.32l2.06-2.06c.76-.87.76-2.17,0-2.93h0Z"/>
    </g>
  </g>
</svg>