<?xml version="1.0" encoding="UTF-8"?>
<svg id="Layer_2" data-name="Layer 2" xmlns="http://www.w3.org/2000/svg" viewBox="0 0 30 30">
  <defs>
    <style>
      .cls-1 {
        fill: gray;
      }

      .cls-1, .cls-2 {
        stroke-width: 0px;
      }

      .cls-2 {
        fill: #c6c6c6;
      }
    </style>
  </defs>
  <g id="Layer_1-2" data-name="Layer 1">
    <g>
      <path class="cls-1" d="m29.78,21.6c-.25-.29-.66-.38-1.01-.23-1.54.67-3.18,1.01-4.87,1.01-6.76,0-12.27-5.5-12.27-12.27,0-3.25,1.26-6.3,3.54-8.62.27-.27.33-.68.15-1.02-.18-.34-.55-.52-.93-.46-3.48.58-6.67,2.39-8.97,5.09-2.33,2.73-3.62,6.21-3.62,9.8,0,1.79.31,3.54.91,5.17,1.2-1.02,2.7-1.57,4.28-1.57,1.75,0,3.39.67,4.64,1.9.74.72,1.29,1.59,1.62,2.55,1.54.81,2.5,2.4,2.5,4.14,0,1.04-.34,2-.92,2.78.69.09,1.38.14,2.07.14,2.66,0,5.28-.7,7.57-2.03,2.22-1.29,4.09-3.13,5.41-5.34.2-.33.16-.74-.09-1.03h0Z"/>
      <path class="cls-2" d="m11.07,30H2.92c-1.61,0-2.92-1.31-2.92-2.92,0-1.36.94-2.51,2.21-2.83.18-.98.65-1.89,1.38-2.6.92-.9,2.13-1.39,3.41-1.39s2.49.49,3.41,1.39c.73.71,1.2,1.62,1.38,2.6,1.27.32,2.21,1.47,2.21,2.83,0,1.61-1.31,2.92-2.92,2.92h0Zm14.62-14.77h-8.16c-1.61,0-2.92-1.31-2.92-2.92,0-1.36.94-2.51,2.21-2.83.18-.98.65-1.89,1.38-2.6.92-.9,2.13-1.39,3.41-1.39s2.49.49,3.41,1.39c.73.71,1.2,1.62,1.38,2.6,1.27.32,2.21,1.47,2.21,2.83,0,1.61-1.31,2.92-2.92,2.92h0Z"/>
    </g>
  </g>
</svg>