<?xml version="1.0" encoding="UTF-8"?>
<svg id="Layer_2" data-name="Layer 2" xmlns="http://www.w3.org/2000/svg" viewBox="0 0 73.41 74.06">
  <defs>
    <style>
      .cls-1 {
        fill: #2cb742;
        fill-rule: evenodd;
        stroke-width: 0px;
      }
    </style>
  </defs>
  <g id="Layer_1-2" data-name="Layer 1">
    <g>
      <path class="cls-1" d="m34.89.06C14.6,1.11-1,18.41.05,38.7c.27,5.13,1.6,10.14,3.92,14.72L.04,72.34c-.16.77.33,1.53,1.1,1.69.21.04.42.04.62,0l18.55-4.39c18.23,9,40.3,1.52,49.29-16.71,2.31-4.68,3.6-9.81,3.78-15.03C74.04,17.63,58.13.67,37.85.02c-.99-.03-1.98-.02-2.97.03v.02Zm22.14,57.02c-5.38,5.41-12.71,8.45-20.35,8.42-4.5,0-8.79-1.02-12.79-3.02l-2.59-1.28-11.37,2.68,2.41-11.61-1.3-2.5c-2.06-4.04-3.13-8.52-3.11-13.05.08-15.91,13.04-28.74,28.94-28.67,7.55.04,14.79,3.04,20.15,8.36,11.21,11.24,11.21,29.43,0,40.67v-.02Z"/>
      <path class="cls-1" d="m54.51,44.7l-7.11-2.04c-.94-.27-1.95,0-2.63.68l-1.74,1.78c-.73.75-1.84.98-2.81.59-3.37-1.35-10.44-7.65-12.26-10.79-.53-.91-.45-2.06.2-2.89l1.52-1.96c.59-.77.72-1.8.33-2.68l-3-6.78c-.59-1.34-2.16-1.94-3.5-1.34-.23.1-.44.24-.63.4-2,1.67-4.35,4.22-4.63,7.05-.52,5,1.63,11.27,9.7,18.81,9.35,8.72,16.83,9.87,21.7,8.7,2.76-.67,4.96-3.35,6.35-5.55.79-1.23.44-2.87-.78-3.66-.22-.14-.45-.25-.7-.32h-.02Z"/>
    </g>
  </g>
</svg>