<?xml version="1.0" encoding="UTF-8"?>
<svg id="Layer_2" data-name="Layer 2" xmlns="http://www.w3.org/2000/svg" viewBox="0 0 159.01 159">
  <defs>
    <style>
      .cls-1 {
        fill: #ffa320;
      }

      .cls-1, .cls-2, .cls-3, .cls-4, .cls-5, .cls-6, .cls-7, .cls-8 {
        stroke-width: 0px;
      }

      .cls-9 {
        opacity: .9;
      }

      .cls-2 {
        fill: #2d2f5c;
      }

      .cls-3 {
        fill: #514c7e;
      }

      .cls-4 {
        fill: #fa2;
      }

      .cls-5 {
        fill: #f78002;
      }

      .cls-6 {
        fill: #4773cc;
      }

      .cls-7 {
        fill: #619ced;
      }

      .cls-8 {
        fill: #f5d34f;
      }
    </style>
  </defs>
  <g id="Layer_1-2" data-name="Layer 1">
    <g class="cls-9">
      <g>
        <path class="cls-8" d="m0,53.5v62.58c0,8.47,6.89,15.35,15.35,15.35h28.29l17.72,12.36,21.72,15.16v-27.52h24.29c8.47,0,15.35-6.89,15.35-15.35v-62.58c0-8.47-6.89-15.35-15.35-15.35H15.35c-8.47,0-15.35,6.88-15.35,15.35h0Z"/>
        <path class="cls-4" d="m122.72,53.5v62.58c0,8.47-6.89,15.35-15.35,15.35l-24.16-.08v27.64l-21.85-15.2V38.15h46.01c8.47,0,15.35,6.88,15.35,15.35h0Z"/>
      </g>
      <g>
        <path class="cls-7" d="m155.52,20.32l-61.32,61.32-17.56.72.72-17.56L138.68,3.49c4.65-4.65,12.19-4.65,16.84,0,2.32,2.32,3.49,5.37,3.49,8.42,0,3.05-1.16,6.1-3.49,8.42h0Z"/>
        <path class="cls-6" d="m155.52,20.32l-61.32,61.32-17.56.72L155.52,3.49c2.32,2.32,3.49,5.37,3.49,8.42,0,3.05-1.16,6.1-3.49,8.42Z"/>
        <g>
          <path class="cls-3" d="m98.27,77.57l-4.08,4.08-17.56.72.72-17.56,4.08-4.08,16.83,16.83Z"/>
          <path class="cls-2" d="m98.27,77.57l-4.08,4.08-17.56.72,13.22-13.22,8.42,8.42Z"/>
        </g>
      </g>
      <g>
        <path class="cls-1" d="m21.37,62.03h39.99v9.32H21.37v-9.32Zm0,18.08h39.99v9.32H21.37v-9.32Zm0,18.08h79.77v9.32H21.37v-9.32Z"/>
        <path class="cls-5" d="m61.36,98.2h39.78v9.32h-39.78v-9.32Z"/>
      </g>
    </g>
  </g>
</svg>