<?xml version="1.0" encoding="UTF-8"?>
<svg id="Layer_2" data-name="Layer 2" xmlns="http://www.w3.org/2000/svg" viewBox="0 0 22.52 21.58">
  <defs>
    <style>
      .cls-1 {
        fill: #f9cb0b;
        stroke-width: 0px;
      }
    </style>
  </defs>
  <g id="Layer_1-2" data-name="Layer 1">
    <path class="cls-1" d="m22.46,8.15c-.15-.46-.55-.78-1.03-.82l-6.5-.59L12.36.73c-.19-.44-.62-.73-1.1-.73s-.91.29-1.1.73l-2.57,6.01-6.5.59c-.48.04-.88.37-1.03.82-.15.46-.01.96.35,1.27l4.91,4.31-1.45,6.38c-.11.47.08.95.47,1.24.21.15.45.23.7.23.21,0,.42-.06.61-.17l5.61-3.35,5.6,3.35c.41.25.93.22,1.32-.06.39-.28.57-.77.47-1.24l-1.45-6.38,4.91-4.31c.36-.32.5-.82.35-1.27h0Z"/>
  </g>
</svg>