<?xml version="1.0" encoding="UTF-8"?>
<svg id="Layer_2" data-name="Layer 2" xmlns="http://www.w3.org/2000/svg" viewBox="0 0 33.41 42.09">
  <defs>
    <style>
      .cls-1 {
        fill: #5a7aa0;
      }

      .cls-1, .cls-2 {
        stroke-width: 0px;
      }

      .cls-2 {
        fill: #8ba6cc;
      }
    </style>
  </defs>
  <g id="Layer_1-2" data-name="Layer 1">
    <g>
      <path class="cls-2" d="m5.77,13.96c-.3-.96-.57-1.92-.8-2.9-1.46-.83-2.36-2.35-2.37-3.99,0-2.56,2.15-4.65,4.78-4.65s4.78,2.08,4.78,4.65c0,.35-.05.69-.12,1.02.46.98.83,2.08,1.15,3.2.91-1.18,1.47-2.63,1.47-4.22,0-3.91-3.26-7.07-7.28-7.07S.11,3.17.11,7.07c0,3.3,2.35,6.16,5.66,6.88Z"/>
      <path class="cls-1" d="m.74,30.71c1.8-1.88,3.81-1.15,6.51-.75,2.32.35,4.6-.29,4.45-1.5-.24-1.97-.58-2.85-1.35-5.39-.61-2.03-1.78-5.68-2.84-9.17-1.42-4.67-1.83-6.84.06-7.38,2.04-.58,3.2,2.23,4.26,6.13,1.2,4.43,1.84,6.39,2.19,6.29.62-.17-.23-2.07,1.41-2.54,2.04-.58,2.44.97,3.01.82.57-.17.38-1.74,2.01-2.2,1.64-.46,2.46,1.5,3.14,1.3.67-.19.65-.9,1.66-1.18,1.01-.29,4.82,1.36,7,8.59,2.73,9.09-.35,10.78.59,13.86l-12.21,4.51c-.99-2.31-4.05-2.48-6.76-3.95-2.73-1.49-4.58-4.4-11.69-4.26-2.67.05-2.55-2.02-1.44-3.18h0Z"/>
    </g>
  </g>
</svg>