<?xml version="1.0" encoding="UTF-8"?>
<svg id="Layer_2" data-name="Layer 2" xmlns="http://www.w3.org/2000/svg" xmlns:xlink="http://www.w3.org/1999/xlink" viewBox="0 0 291 291">
  <defs>
    <style>
      .cls-1 {
        fill: url(#linear-gradient);
        filter: url(#drop-shadow-1);
      }

      .cls-1, .cls-2, .cls-3 {
        stroke-width: 0px;
      }

      .cls-2 {
        fill: #1a1a1a;
      }

      .cls-3 {
        fill: #4f3d1d;
      }
    </style>
    <linearGradient id="linear-gradient" x1="78.8" y1="124.35" x2="212.77" y2="163.39" gradientUnits="userSpaceOnUse">
      <stop offset="0" stop-color="#ffbc36"/>
      <stop offset="1" stop-color="#ffb818"/>
    </linearGradient>
    <filter id="drop-shadow-1" filterUnits="userSpaceOnUse">
      <feOffset dx="0" dy="2"/>
      <feGaussianBlur result="blur" stdDeviation="25"/>
      <feFlood flood-color="#000" flood-opacity=".5"/>
      <feComposite in2="blur" operator="in"/>
      <feComposite in="SourceGraphic"/>
    </filter>
  </defs>
  <g id="Layer_1-2" data-name="Layer 1">
    <path class="cls-1" d="m147.47,73.87h47.43c11.64,0,21.1,9.45,21.1,21.1v47c0,39.68-32.22,71.9-71.9,71.9h-47.43c-11.64,0-21.1-9.45-21.1-21.1v-47c0-39.68,32.22-71.9,71.9-71.9Z"/>
    <g>
      <path class="cls-2" d="m185.69,107.01c-1.41-1.36-3.28-2.12-5.27-2.14-.03,0-.06,0-.09,0-1.96,0-3.81.72-5.23,2.03l-42.22,38.97c4.52,1.11,8.38,3.91,10.9,8.01.76,1.24,1.38,2.56,1.84,3.93l40.19-40.57c1.35-1.37,2.1-3.16,2.1-5.05s-.79-3.79-2.22-5.17Z"/>
      <path class="cls-3" d="m128.96,150.42c-.21,0-.42-.01-.64-.01-3.56,0-7.1,1.2-9.98,3.2-3.47,2.41-4.86,5.88-7.41,9.04-3.2,3.96-8.12,5.89-13.01,7.21,2.84,7.26,13.41,10.23,20.34,10.39.25,0,.5,0,.75,0,7.85,0,17.09-2.81,20.87-10.27,4.15-8.18-.97-19.16-10.93-19.57Z"/>
    </g>
  </g>
</svg>