<?xml version="1.0" encoding="UTF-8"?>
<svg id="Layer_2" data-name="Layer 2" xmlns="http://www.w3.org/2000/svg" viewBox="0 0 44.14 27">
  <defs>
    <style>
      .cls-1 {
        fill: none;
        stroke: #66502d;
        stroke-miterlimit: 10;
        stroke-width: 2px;
      }
    </style>
  </defs>
  <g id="Layer_1-2" data-name="Layer 1">
    <g>
      <path class="cls-1" d="m1,20.7V6.94c0-.11.1-.2.21-.18l5.17.8c.09.01.16.09.16.18v11.69c0,.09-.06.16-.15.18l-5.39,1.1h0Z"/>
      <path class="cls-1" d="m24.76,25.95l18.17-10.99c.28-.17.16-.61-.17-.61h-16.21c-.19.68-.82,1.18-1.56,1.18-.9,0-1.62-.73-1.62-1.62s.73-1.62,1.62-1.62c.76,0,1.39.52,1.57,1.22h16.25c.33,0,.45-.43.18-.6L24.61,1.05c-.09-.06-.2-.07-.3-.03l-15.79,6.47c-.12.05-.2.17-.2.3v11.54c0,.13.08.26.21.31l15.94,6.33c.1.04.2.03.29-.02Z"/>
    </g>
  </g>
</svg>