<?xml version="1.0" encoding="UTF-8"?>
<svg id="Layer_2" data-name="Layer 2" xmlns="http://www.w3.org/2000/svg" xmlns:xlink="http://www.w3.org/1999/xlink" viewBox="0 0 151.6 32.84">
  <defs>
    <style>
      .cls-1 {
        fill: none;
        stroke: url(#Degradado_sin_nombre_59);
        stroke-miterlimit: 10;
        stroke-width: 2px;
      }
    </style>
    <linearGradient id="Degradado_sin_nombre_59" data-name="Degradado sin nombre 59" x1="0" y1="16.42" x2="151.6" y2="16.42" gradientUnits="userSpaceOnUse">
      <stop offset=".14" stop-color="#ffc522"/>
      <stop offset=".93" stop-color="#ffa143"/>
    </linearGradient>
  </defs>
  <g id="Layer_1-2" data-name="Layer 1">
    <path class="cls-1" d="m.52,31.98l11.08-6.66c1.06-.64,2.37-.78,3.56-.39h0c1.85.62,3.91-.1,4.91-1.72l3.26-5.24c1.31-2.1,4.27-2.58,6.22-1l7.81,6.31c2,1.62,5.04,1.07,6.3-1.13L54.55,3.06c1.04-1.82,3.36-2.56,5.33-1.71l5,2.17c.49.21.93.52,1.3.89l4.18,4.24c1.53,1.55,4.07,1.67,5.74.25l5.58-4.71c1.42-1.2,3.52-1.32,5.08-.29l27.9,18.43c1.56,1.03,3.65.91,5.08-.29l8.82-7.44c.95-.8,2.24-1.14,3.49-.92l5.31.95c1.32.24,2.67-.15,3.63-1.05l9.83-11.47"/>
  </g>
</svg>