<?xml version="1.0" encoding="UTF-8"?>
<svg id="Layer_2" data-name="Layer 2" xmlns="http://www.w3.org/2000/svg" viewBox="0 0 337.39 129.78">
  <defs>
    <style>
      .cls-1 {
        fill: #020024;
        stroke-width: 0px;
      }
    </style>
  </defs>
  <g id="Layer_1-2" data-name="Layer 1">
    <g>
      <ellipse class="cls-1" cx="334.05" cy="126.53" rx="3.34" ry="3.24"/>
      <ellipse class="cls-1" cx="309" cy="126.53" rx="3.34" ry="3.24"/>
      <ellipse class="cls-1" cx="334.05" cy="102.2" rx="3.34" ry="3.24"/>
      <ellipse class="cls-1" cx="309" cy="102.2" rx="3.34" ry="3.24"/>
      <ellipse class="cls-1" cx="282.28" cy="126.53" rx="3.34" ry="3.24"/>
      <ellipse class="cls-1" cx="257.22" cy="126.53" rx="3.34" ry="3.24"/>
      <ellipse class="cls-1" cx="282.28" cy="102.2" rx="3.34" ry="3.24"/>
      <ellipse class="cls-1" cx="257.22" cy="102.2" rx="3.34" ry="3.24"/>
      <ellipse class="cls-1" cx="232.17" cy="126.53" rx="3.34" ry="3.24"/>
      <ellipse class="cls-1" cx="207.11" cy="126.53" rx="3.34" ry="3.24"/>
      <ellipse class="cls-1" cx="232.17" cy="102.2" rx="3.34" ry="3.24"/>
      <ellipse class="cls-1" cx="207.11" cy="102.2" rx="3.34" ry="3.24"/>
      <ellipse class="cls-1" cx="182.06" cy="126.53" rx="3.34" ry="3.24"/>
      <ellipse class="cls-1" cx="155.33" cy="126.53" rx="3.34" ry="3.24"/>
      <ellipse class="cls-1" cx="182.06" cy="102.2" rx="3.34" ry="3.24"/>
      <ellipse class="cls-1" cx="157.01" cy="102.2" rx="3.34" ry="3.24"/>
      <ellipse class="cls-1" cx="130.28" cy="126.53" rx="3.34" ry="3.24"/>
      <ellipse class="cls-1" cx="105.23" cy="126.53" rx="3.34" ry="3.24"/>
      <ellipse class="cls-1" cx="130.28" cy="102.2" rx="3.34" ry="3.24"/>
      <ellipse class="cls-1" cx="105.23" cy="102.2" rx="3.34" ry="3.24"/>
      <ellipse class="cls-1" cx="80.17" cy="126.53" rx="3.34" ry="3.24"/>
      <ellipse class="cls-1" cx="53.45" cy="126.53" rx="3.34" ry="3.24"/>
      <ellipse class="cls-1" cx="80.17" cy="102.2" rx="3.34" ry="3.24"/>
      <ellipse class="cls-1" cx="55.12" cy="102.2" rx="3.34" ry="3.24"/>
      <ellipse class="cls-1" cx="30.06" cy="126.53" rx="3.34" ry="3.24"/>
      <ellipse class="cls-1" cx="3.34" cy="126.53" rx="3.34" ry="3.24"/>
      <ellipse class="cls-1" cx="30.06" cy="102.2" rx="3.34" ry="3.24"/>
      <ellipse class="cls-1" cx="5.01" cy="102.2" rx="3.34" ry="3.24"/>
      <ellipse class="cls-1" cx="334.05" cy="77.87" rx="3.34" ry="3.24"/>
      <ellipse class="cls-1" cx="309" cy="77.87" rx="3.34" ry="3.24"/>
      <ellipse class="cls-1" cx="334.05" cy="53.53" rx="3.34" ry="3.24"/>
      <ellipse class="cls-1" cx="309" cy="53.53" rx="3.34" ry="3.24"/>
      <ellipse class="cls-1" cx="282.28" cy="77.87" rx="3.34" ry="3.24"/>
      <ellipse class="cls-1" cx="257.22" cy="77.87" rx="3.34" ry="3.24"/>
      <ellipse class="cls-1" cx="282.28" cy="53.53" rx="3.34" ry="3.24"/>
      <ellipse class="cls-1" cx="257.22" cy="53.53" rx="3.34" ry="3.24"/>
      <ellipse class="cls-1" cx="232.17" cy="77.87" rx="3.34" ry="3.24"/>
      <ellipse class="cls-1" cx="207.11" cy="77.87" rx="3.34" ry="3.24"/>
      <ellipse class="cls-1" cx="232.17" cy="53.53" rx="3.34" ry="3.24"/>
      <ellipse class="cls-1" cx="207.11" cy="53.53" rx="3.34" ry="3.24"/>
      <ellipse class="cls-1" cx="182.06" cy="77.87" rx="3.34" ry="3.24"/>
      <ellipse class="cls-1" cx="155.33" cy="77.87" rx="3.34" ry="3.24"/>
      <ellipse class="cls-1" cx="182.06" cy="53.53" rx="3.34" ry="3.24"/>
      <ellipse class="cls-1" cx="157.01" cy="53.53" rx="3.34" ry="3.24"/>
      <ellipse class="cls-1" cx="130.28" cy="77.87" rx="3.34" ry="3.24"/>
      <ellipse class="cls-1" cx="105.23" cy="77.87" rx="3.34" ry="3.24"/>
      <ellipse class="cls-1" cx="130.28" cy="53.53" rx="3.34" ry="3.24"/>
      <ellipse class="cls-1" cx="105.23" cy="53.53" rx="3.34" ry="3.24"/>
      <ellipse class="cls-1" cx="80.17" cy="77.87" rx="3.34" ry="3.24"/>
      <ellipse class="cls-1" cx="53.45" cy="77.87" rx="3.34" ry="3.24"/>
      <ellipse class="cls-1" cx="80.17" cy="53.53" rx="3.34" ry="3.24"/>
      <ellipse class="cls-1" cx="55.12" cy="53.53" rx="3.34" ry="3.24"/>
      <ellipse class="cls-1" cx="30.06" cy="77.87" rx="3.34" ry="3.24"/>
      <ellipse class="cls-1" cx="3.34" cy="77.87" rx="3.34" ry="3.24"/>
      <ellipse class="cls-1" cx="30.06" cy="53.53" rx="3.34" ry="3.24"/>
      <ellipse class="cls-1" cx="5.01" cy="53.53" rx="3.34" ry="3.24"/>
      <ellipse class="cls-1" cx="334.05" cy="27.58" rx="3.34" ry="3.24"/>
      <ellipse class="cls-1" cx="309" cy="27.58" rx="3.34" ry="3.24"/>
      <ellipse class="cls-1" cx="334.05" cy="3.24" rx="3.34" ry="3.24"/>
      <ellipse class="cls-1" cx="309" cy="3.24" rx="3.34" ry="3.24"/>
      <ellipse class="cls-1" cx="282.28" cy="27.58" rx="3.34" ry="3.24"/>
      <ellipse class="cls-1" cx="257.22" cy="27.58" rx="3.34" ry="3.24"/>
      <ellipse class="cls-1" cx="282.28" cy="3.24" rx="3.34" ry="3.24"/>
      <ellipse class="cls-1" cx="257.22" cy="3.24" rx="3.34" ry="3.24"/>
      <ellipse class="cls-1" cx="232.17" cy="27.58" rx="3.34" ry="3.24"/>
      <ellipse class="cls-1" cx="207.11" cy="27.58" rx="3.34" ry="3.24"/>
      <ellipse class="cls-1" cx="232.17" cy="3.24" rx="3.34" ry="3.24"/>
      <ellipse class="cls-1" cx="207.11" cy="3.24" rx="3.34" ry="3.24"/>
      <ellipse class="cls-1" cx="182.06" cy="27.58" rx="3.34" ry="3.24"/>
      <ellipse class="cls-1" cx="155.33" cy="27.58" rx="3.34" ry="3.24"/>
      <ellipse class="cls-1" cx="182.06" cy="3.24" rx="3.34" ry="3.24"/>
      <ellipse class="cls-1" cx="157.01" cy="3.24" rx="3.34" ry="3.24"/>
      <ellipse class="cls-1" cx="130.28" cy="27.58" rx="3.34" ry="3.24"/>
      <ellipse class="cls-1" cx="105.23" cy="27.58" rx="3.34" ry="3.24"/>
      <ellipse class="cls-1" cx="130.28" cy="3.24" rx="3.34" ry="3.24"/>
      <ellipse class="cls-1" cx="105.23" cy="3.24" rx="3.34" ry="3.24"/>
      <ellipse class="cls-1" cx="80.17" cy="27.58" rx="3.34" ry="3.24"/>
      <ellipse class="cls-1" cx="53.45" cy="27.58" rx="3.34" ry="3.24"/>
      <ellipse class="cls-1" cx="80.17" cy="3.24" rx="3.34" ry="3.24"/>
      <ellipse class="cls-1" cx="55.12" cy="3.24" rx="3.34" ry="3.24"/>
      <ellipse class="cls-1" cx="30.06" cy="27.58" rx="3.34" ry="3.24"/>
      <ellipse class="cls-1" cx="3.34" cy="27.58" rx="3.34" ry="3.24"/>
      <ellipse class="cls-1" cx="30.06" cy="3.24" rx="3.34" ry="3.24"/>
      <ellipse class="cls-1" cx="5.01" cy="3.24" rx="3.34" ry="3.24"/>
    </g>
  </g>
</svg>